<?xml version="1.0" encoding="UTF-8"?>
<svg version="1.1" xmlns="http://www.w3.org/2000/svg" width="468" height="405">
<path d="M0 0 C1.55353683 0.00081573 1.55353683 0.00081573 3.13845825 0.00164795 C28.34376142 0.06237835 51.98883601 3.40679629 76.25 10.375 C77.03455566 10.59881348 77.81911133 10.82262695 78.62744141 11.05322266 C133.87516299 27.20886782 183.41118677 64.77752734 211.25 115.375 C223.50152793 138.24484189 232.29032268 164.43095508 232.453125 190.58203125 C232.46022995 191.34060425 232.4673349 192.09917725 232.47465515 192.8807373 C232.70551514 224.76998005 232.70551514 224.76998005 229.25 238.375 C229.01893555 239.29990234 228.78787109 240.22480469 228.54980469 241.17773438 C225.04151657 254.8490257 220.51330272 267.73201044 214.25 280.375 C213.784729 281.33792969 213.784729 281.33792969 213.31005859 282.3203125 C195.17153896 319.61410644 163.40853152 348.45292084 128.25 369.375 C127.32815918 369.92897461 127.32815918 369.92897461 126.38769531 370.49414062 C100.3492134 385.92544492 70.0283882 394.84248918 40.25 399.375 C39.1347998 399.55160156 38.01959961 399.72820312 36.87060547 399.91015625 C25.08770063 401.59708625 13.38951996 401.77351092 1.5 401.75 C-0.05353683 401.74918427 -0.05353683 401.74918427 -1.63845825 401.74835205 C-26.84376142 401.68762165 -50.48883601 398.34320371 -74.75 391.375 C-75.53455566 391.15118652 -76.31911133 390.92737305 -77.12744141 390.69677734 C-132.37516299 374.54113218 -181.91118677 336.97247266 -209.75 286.375 C-222.00152793 263.50515811 -230.79032268 237.31904492 -230.953125 211.16796875 C-230.96022995 210.40939575 -230.9673349 209.65082275 -230.97465515 208.8692627 C-231.20551514 176.98001995 -231.20551514 176.98001995 -227.75 163.375 C-227.51893555 162.45009766 -227.28787109 161.52519531 -227.04980469 160.57226562 C-223.54151657 146.9009743 -219.01330272 134.01798956 -212.75 121.375 C-212.43981934 120.73304687 -212.12963867 120.09109375 -211.81005859 119.4296875 C-193.67153896 82.13589356 -161.90853152 53.29707916 -126.75 32.375 C-126.13543945 32.00568359 -125.52087891 31.63636719 -124.88769531 31.25585938 C-98.8492134 15.82455508 -68.5283882 6.90751082 -38.75 2.375 C-37.6347998 2.19839844 -36.51959961 2.02179687 -35.37060547 1.83984375 C-23.58770063 0.15291375 -11.88951996 -0.02351092 0 0 Z " fill="#FEFEFE" transform="translate(232.75,1.625)"/>
<path d="M0 0 C1.56447133 1.37022489 3.10618287 2.76683772 4.625 4.1875 C5.46546875 4.93773438 6.3059375 5.68796875 7.171875 6.4609375 C19.13053464 17.65859153 27.75443558 33.37614554 28.80200195 49.99560547 C29.24819368 72.26963863 25.78984494 88.91140866 15.83984375 108.74609375 C11.51136807 117.76119322 10.44143042 125.28648527 11.625 135.1875 C11.9859375 135.89648438 12.346875 136.60546875 12.71875 137.3359375 C13.625 139.1875 13.625 139.1875 13.51171875 141.60546875 C12.38568144 144.88437034 10.70145072 146.87958133 8.4375 149.5 C5.57907319 152.81541667 3.08664713 156.01876459 0.8125 159.75 C-2.41380709 163.95468603 -5.81006324 164.53191754 -10.9050293 165.24780273 C-16.89736069 165.14366526 -21.82447057 162.64953468 -27.0234375 159.90625 C-28.88037242 158.93468912 -30.76197437 158.03677817 -32.65625 157.140625 C-38.28468757 154.35035562 -42.66129062 152.06283906 -44.9765625 145.953125 C-45.22116211 145.10911133 -45.46576172 144.26509766 -45.71777344 143.39550781 C-47.03580634 138.96746561 -50.68322645 136.66069986 -54.375 134.1875 C-59.41095193 131.66952404 -64.84896161 131.4003844 -70.375 132.1875 C-77.94770591 134.74837152 -82.81813842 138.45730608 -86.625 145.5 C-87.45351708 148.04883714 -87.45351708 148.04883714 -87.4296875 150.21875 C-87.58301962 155.19352536 -88.37229573 157.73339629 -91.9375 161.3125 C-93.39559908 162.62790255 -94.87500403 163.9200818 -96.375 165.1875 C-97.68780359 166.33298549 -99.00031086 167.47881069 -100.3125 168.625 C-100.97121094 169.19089844 -101.62992187 169.75679687 -102.30859375 170.33984375 C-105.37967364 173.08581878 -108.23302442 176.0366081 -111.125 178.96875 C-114.40538181 182.20357095 -117.87883678 185.19078867 -121.375 188.1875 C-121.705 188.5175 -122.035 188.8475 -122.375 189.1875 C-124.90549402 189.26063567 -127.40804837 189.27997527 -129.9375 189.25 C-131.00387695 189.24323242 -131.00387695 189.24323242 -132.09179688 189.23632812 C-133.85290013 189.22450864 -135.61396036 189.20657263 -137.375 189.1875 C-137.045 188.1975 -136.715 187.2075 -136.375 186.1875 C-133.88272556 185.16940442 -131.5052254 184.33068378 -128.9375 183.5625 C-124.05725624 182.13010719 -124.05725624 182.13010719 -119.375 180.1875 C-118.72286708 178.16286745 -118.72286708 178.16286745 -118.375 176.1875 C-119.40101318 176.17348145 -119.40101318 176.17348145 -120.44775391 176.15917969 C-140.69335122 175.81193722 -159.74489952 174.60955162 -175.3125 159.875 C-184.01018793 150.44319529 -189.18082799 139.36007437 -188.7265625 126.3515625 C-188.18485984 123.01708167 -186.89937373 121.37074214 -184.375 119.1875 C-180.21079579 116.71148668 -177.00634568 117.02966358 -172.375 118.1875 C-167.40832503 121.21300124 -166.17795726 124.71739489 -164.8125 130.125 C-163.21797911 136.27207523 -161.67602036 140.90217821 -156.19140625 144.69921875 C-143.65448843 151.23927467 -131.40584439 153.44976443 -117.4375 149.5625 C-111.35092482 147.44220706 -106.7025244 145.0106899 -103.29296875 139.41015625 C-99.83765413 131.69486469 -100.53184033 123.7484258 -103.4375 116 C-104.94301887 112.39445338 -106.53405337 108.83000969 -108.125 105.26171875 C-118.32429127 82.37120126 -123.36269851 59.32404904 -115.2734375 34.85546875 C-108.2104751 17.10692775 -95.63407136 1.80513287 -78.375 -6.8125 C-53.20971543 -17.39302615 -22.40525271 -17.29405444 0 0 Z " fill="#386CB0" transform="translate(270.375,52.8125)"/>
<path d="M0 0 C1.04929687 0.52980469 2.09859375 1.05960938 3.1796875 1.60546875 C4.18515625 2.12496094 5.190625 2.64445313 6.2265625 3.1796875 C7.14260254 3.64874512 8.05864258 4.11780273 9.00244141 4.60107422 C12.51905733 6.85984316 13.99895389 9.32162877 15.75 13.0625 C19.02062852 19.22637683 23.27101559 22.11410822 29.69140625 24.4609375 C36.55808523 26.16011571 42.56402183 24.50284646 48.68359375 21.2578125 C50.48539054 20.05106638 51.89740725 18.70652129 53.375 17.125 C57.07833167 18.63469151 59.05263944 20.7913643 61.625 23.8125 C68.55983809 31.94954542 75.83021181 37.27027613 85.3125 42.125 C102.87392265 51.15314031 115.85203218 62.87108887 122.6875 81.75 C124.61415034 90.84601265 124.91928999 102.82434127 120.375 111.125 C117.74708626 114.72899598 115.70447395 116.34227025 111.375 117.125 C107.12358608 117.125 105.59806233 116.79553736 102.375 114.125 C100.5030447 112.02473011 99.45029217 110.75660982 99.11376953 107.93359375 C99.16130371 107.15113281 99.20883789 106.36867188 99.2578125 105.5625 C99.29398682 104.68875732 99.33016113 103.81501465 99.36743164 102.91479492 C99.4111792 101.9941626 99.45492676 101.07353027 99.5 100.125 C99.69763654 90.75766826 99.3933591 82.39129768 92.58618164 75.24780273 C86.86045125 69.83741548 80.68561206 66.3335207 73.6875 62.8125 C60.82892573 56.089703 50.24104058 48.58244372 40.2421875 38 C37.11878129 34.86352514 34.6964938 33.08858393 30.375 32.125 C35.98391337 58.34322592 43.31528052 83.97216362 64.7109375 101.6171875 C66.96675639 103.66119241 68.25778323 105.39702215 68.74609375 108.4296875 C68.92653462 115.41381062 68.92653462 115.41381062 66 119.1875 C61.92067239 122.19843228 59.80814744 122.44791924 54.8671875 121.80859375 C50.12953141 120.50907993 46.92684315 117.39533113 43.375 114.125 C42.55902344 113.40054688 41.74304688 112.67609375 40.90234375 111.9296875 C23.72755189 95.84325185 16.58100087 73.70749448 9.58374023 51.88647461 C8.42449024 48.27193559 7.25150366 44.66207277 6.07617188 41.05273438 C5.33254921 38.75806646 4.589682 36.46315356 3.84765625 34.16796875 C3.49776138 33.08791061 3.14786652 32.00785248 2.78736877 30.89506531 C2.46960983 29.90255264 2.15185089 28.91003998 1.82446289 27.88745117 C1.54357315 27.01336105 1.26268341 26.13927094 0.97328186 25.23869324 C0.375 23.125 0.375 23.125 0.375 21.125 C-0.615 21.125 -1.605 21.125 -2.625 21.125 C-2.77557861 21.69863281 -2.92615723 22.27226562 -3.08129883 22.86328125 C-24.27058098 102.11826208 -24.27058098 102.11826208 -51.98828125 120.78125 C-55.99501073 122.82319806 -59.28391765 123.43153935 -63.625 122.125 C-66.67613035 120.35855611 -69.0212038 118.3325924 -70.625 115.125 C-71.01270346 109.98792909 -70.61337131 107.29496582 -67.625 103.125 C-66.16827677 101.7893341 -64.70715125 100.45687452 -63.19580078 99.18334961 C-44.89868067 83.71798938 -37.7000413 58.82601762 -32.625 36.125 C-32.625 35.135 -32.625 34.145 -32.625 33.125 C-37.86951624 33.4340691 -40.32636226 36.48296173 -43.6875 40.125 C-53.46266944 50.24272166 -64.05665883 57.1080161 -76.33203125 63.77734375 C-90.88444071 71.63724621 -90.88444071 71.63724621 -100.05371094 84.96630859 C-101.48015277 90.35630804 -100.63299061 96.25191608 -100.33203125 101.76367188 C-100.07929928 110.17525101 -100.07929928 110.17525101 -103.0078125 113.77734375 C-106.56340109 116.96675979 -108.69707496 117.5534613 -113.52734375 117.45703125 C-117.20366957 116.87511748 -119.44810449 114.9800561 -121.625 112.125 C-126.59551457 103.77828685 -125.98447994 91.24522307 -123.74609375 82.04296875 C-120.51451579 70.77611588 -114.37088402 61.81904051 -105.625 54.125 C-105.03589844 53.60550781 -104.44679688 53.08601563 -103.83984375 52.55078125 C-101.15844317 50.3997676 -99.44398075 49.06786181 -95.9375 49.3125 C-94.844375 49.580625 -93.75125 49.84875 -92.625 50.125 C-83.15403955 50.7764233 -83.15403955 50.7764233 -74.625 47.125 C-73.75875 46.568125 -72.8925 46.01125 -72 45.4375 C-68.87434243 42.39409658 -66.95607746 39.28135461 -65.625 35.125 C-65.62121338 34.485625 -65.61742676 33.84625 -65.61352539 33.1875 C-65.51898695 26.49212661 -62.87778149 23.50350334 -58.17382812 18.921875 C-57.31208984 18.12265625 -56.45035156 17.3234375 -55.5625 16.5 C-54.72783203 15.69304687 -53.89316406 14.88609375 -53.03320312 14.0546875 C-48.5812995 9.77974964 -44.01777324 5.65632178 -39.3125 1.66235352 C-37.60685709 0.10847137 -36.18413286 -1.55990429 -34.6875 -3.3125 C-30.98259449 -6.41252298 -29.41228752 -6.30153561 -24.796875 -5.9453125 C-22.39434394 -5.73798362 -22.39434394 -5.73798362 -19.375 -7 C-13.25196131 -8.94823958 -5.41115873 -2.79264009 0 0 Z " fill="#4FAEF8" transform="translate(231.625,236.875)"/>
<path d="M0 0 C3.86720247 2.00521609 6.94761566 4.11127178 9 8 C10.38242317 14.02341524 10.18456076 17.48009468 7 23 C4.73512071 25.09915641 2.74958564 26.62520718 0 28 C-1.39445454 27.86781325 -2.78757623 27.72133525 -4.1796875 27.56640625 C-7.13926774 27.53857506 -8.54137413 27.65747755 -10.93457031 29.44482422 C-12.80762399 31.52720696 -14.47606807 33.67356865 -16.125 35.9375 C-16.73263184 36.72366699 -17.34026367 37.50983398 -17.96630859 38.31982422 C-19.66848397 40.5294008 -21.33628767 42.76142333 -23 45 C-24.20433544 46.5447918 -25.41154462 48.08736168 -26.625 49.625 C-27.13804687 50.29402344 -27.65109375 50.96304688 -28.1796875 51.65234375 C-30.66681682 54.85999337 -33.2096452 58.02193145 -35.75 61.1875 C-40.21942848 66.7583758 -44.65098666 72.35676783 -49.04345703 77.98852539 C-51.20712431 80.75382667 -53.39358103 83.49128248 -55.65234375 86.1796875 C-56.46832031 87.15164062 -57.28429687 88.12359375 -58.125 89.125 C-58.84945312 89.97320312 -59.57390625 90.82140625 -60.3203125 91.6953125 C-63.3088357 95.79584434 -63.0274578 98.91859479 -62.75 103.875 C-62.71118625 107.85340905 -62.69716185 110.48065057 -65.25 113.625 C-69.78270642 117.53961009 -72.92462025 118.40464111 -78.8203125 118.25 C-83.07075643 117.76249389 -85.27493532 115.70492399 -88.25 112.8125 C-90.56225597 109.09637434 -90.70559028 106.34254337 -91 102 C-92.26928345 101.6136438 -92.26928345 101.6136438 -93.56420898 101.21948242 C-97.20984665 99.92551808 -100.55954276 98.28521621 -103.97265625 96.48828125 C-105.29722712 95.80605994 -106.62210625 95.12443686 -107.94726562 94.44335938 C-110.01322212 93.37627277 -112.07664998 92.30506414 -114.13500977 91.22338867 C-116.13708237 90.17393623 -118.14758981 89.14243222 -120.16015625 88.11328125 C-120.77174088 87.78628738 -121.3833255 87.45929352 -122.01344299 87.12239075 C-124.81286877 85.70584864 -126.64327225 84.96907883 -129.80249023 85.24291992 C-132.00587205 85.94815116 -132.00587205 85.94815116 -134 87 C-135.83370907 86.83751945 -137.66697962 86.67007406 -139.5 86.5 C-144.54861143 86.49401823 -147.00832535 87.15808514 -150.75 90.5625 C-152.01323698 91.85209666 -153.27469016 93.14376754 -154.51123047 94.45898438 C-157.48640712 97.53857031 -160.67511041 100.40013493 -163.8125 103.3125 C-165.18552197 104.60480383 -166.55791829 105.8977727 -167.9296875 107.19140625 C-170.55869227 109.66196933 -173.20738536 112.10714278 -175.8828125 114.52734375 C-176.48375732 115.07285889 -177.08470215 115.61837402 -177.70385742 116.18041992 C-178.83253066 117.20228166 -179.96531611 118.21962557 -181.1027832 119.23168945 C-183.5757544 121.47561556 -184.92407026 122.77221079 -186 126 C-185.96985911 127.43854233 -185.90426058 128.87657086 -185.8125 130.3125 C-185.7745501 134.98033813 -186.80090382 137.46415685 -190 141 C-194.38373454 143.9224897 -197.77777599 144.559524 -203 144 C-207.67105307 142.25980376 -210.36363681 140.23701227 -213 136 C-213.30259267 134.63163844 -213.57184468 133.25560158 -213.8125 131.875 C-214.17850026 129.81665145 -214.17850026 129.81665145 -215 128 C-218.25479559 125.69981499 -218.25479559 125.69981499 -222 125 C-223.33598931 125.66132804 -224.66922089 126.32824917 -226 127 C-228.11328125 126.9140625 -228.11328125 126.9140625 -230.3125 126.625 C-233.17180759 126.56300793 -234.52288051 126.58471172 -236.71435547 128.4921875 C-237.23916504 129.15476562 -237.76397461 129.81734375 -238.3046875 130.5 C-238.9035376 131.22912598 -239.5023877 131.95825195 -240.11938477 132.70947266 C-240.73998779 133.46534668 -241.36059082 134.2212207 -242 135 C-243.26520756 136.39392514 -244.542645 137.77684698 -245.83203125 139.1484375 C-246.80474976 140.1839978 -246.80474976 140.1839978 -247.79711914 141.24047852 C-248.46219482 141.94487061 -249.12727051 142.6492627 -249.8125 143.375 C-250.51173584 144.11741943 -251.21097168 144.85983887 -251.93139648 145.62475586 C-256.50166339 150.46085249 -261.15393358 155.19024363 -265.89453125 159.859375 C-267.94267088 161.94171362 -269.85403945 164.09163515 -271.75 166.3125 C-274.57986582 169.62633337 -277.56689706 172.32050502 -281 175 C-282.23739886 169.82125662 -282.81664794 165.06135603 -281 160 C-276.68060544 153.86714838 -270.82319427 149.02674636 -265.23803711 144.08129883 C-262.48280231 141.51902364 -260.09063529 138.74237337 -257.66381836 135.87329102 C-256.02574512 134.0289864 -254.31594848 132.39881477 -252.47265625 130.76171875 C-245.91429351 125.33711674 -245.91429351 125.33711674 -242.375 117.96484375 C-242.49665117 116.12233547 -242.67828887 114.28245124 -242.9296875 112.453125 C-243.01956671 109.31733912 -242.19347659 108.23610164 -240.1875 105.875 C-237.24923289 102.84241814 -234.93902711 102.08858746 -230.6875 101.6875 C-226.2979742 102.05949371 -224.35223657 103.19347636 -221 106 C-218.87727985 108.99110566 -218.79913201 111.38437619 -219 115 C-213.60203378 116.92537715 -213.60203378 116.92537715 -208 118 C-207.01 117.34 -206.02 116.68 -205 116 C-203.30845902 116.08725087 -201.6199021 116.24142148 -199.9375 116.4375 C-194.98499759 116.50889912 -192.77837234 115.58048837 -189.125 112.25 C-187.40384555 110.51260824 -185.69636209 108.76160678 -184 107 C-181.98375889 105.09698488 -179.92689089 103.23941956 -177.875 101.375 C-162.16985028 89.41429433 -162.16985028 89.41429433 -153.6875 73.8125 C-153.17137973 67.69051959 -151.52992071 64.23228298 -146.875 60.125 C-142.55651358 58.43515749 -138.5732948 58.34039017 -134 59 C-129.51257466 61.20291789 -127.1021233 63.4804349 -125 68 C-124.71056519 69.6694165 -124.71056519 69.6694165 -124.4152832 71.37255859 C-122.46149671 76.38021079 -119.792655 77.46738702 -115.10546875 79.7265625 C-113.92891472 80.3216713 -113.92891472 80.3216713 -112.72859192 80.92880249 C-111.07253695 81.75871712 -109.41043996 82.57666996 -107.74291992 83.38330078 C-105.18965993 84.62395047 -102.66468132 85.91195685 -100.13867188 87.20703125 C-98.52489829 88.00815768 -96.90970667 88.80643532 -95.29296875 89.6015625 C-94.53759323 89.988815 -93.78221771 90.3760675 -93.00395203 90.77505493 C-90.98616332 91.73038742 -89.18478902 92.53928736 -87 93 C-84.14567478 91.86590466 -84.14567478 91.86590466 -82 90 C-79.10546875 89.70703125 -79.10546875 89.70703125 -76.1875 89.8125 C-74.72376953 89.85310547 -74.72376953 89.85310547 -73.23046875 89.89453125 C-72.12638672 89.94673828 -72.12638672 89.94673828 -71 90 C-70.72325439 89.4131543 -70.44650879 88.82630859 -70.16137695 88.22167969 C-69.057668 86.11031717 -67.86402463 84.3412822 -66.41796875 82.453125 C-65.90476074 81.78128174 -65.39155273 81.10943848 -64.86279297 80.41723633 C-64.30994629 79.70204834 -63.75709961 78.98686035 -63.1875 78.25 C-62.6114502 77.50065186 -62.03540039 76.75130371 -61.44189453 75.97924805 C-56.9655891 70.18412891 -52.38122872 64.48278582 -47.74145508 58.81811523 C-44.22777185 54.52644384 -40.78091312 50.190048 -37.375 45.8125 C-33.22488803 40.48283449 -28.9326544 35.29336913 -24.52685547 30.1730957 C-20.20080158 25.13300948 -18.81952825 22.93666121 -19.25 16.25 C-19.37905318 8.44228275 -19.37905318 8.44228275 -16.25 4.75 C-11.45259226 0.04950959 -6.53365193 -0.93013795 0 0 Z " fill="#4689D2" transform="translate(344,135)"/>
<path d="M0 0 C3.41646448 2.84705373 4.94653603 5.58031351 5.53515625 10.03125 C6.09409052 25.00096779 0.35004761 38.74430899 -9.6875 49.6875 C-22.10651286 61.40516365 -38.12540908 66.2216653 -54.875 66.5625 C-56.02226562 66.59666016 -57.16953125 66.63082031 -58.3515625 66.66601562 C-61.15094374 66.74766424 -63.95004449 66.81708092 -66.75 66.875 C-66.75 68.195 -66.75 69.515 -66.75 70.875 C-64.96386441 71.67906791 -63.17068751 72.46749637 -61.375 73.25 C-59.87839844 73.91128906 -59.87839844 73.91128906 -58.3515625 74.5859375 C-50.14570545 77.52295792 -42.27470649 78.07677554 -33.625 78.1875 C-17.41743906 78.68665534 -4.01290086 82.15757439 7.55859375 94.296875 C12.71661808 100.39186154 17.25975773 106.94408212 17.75 115.125 C17.1811192 119.39160597 16.39629392 120.98381099 13.25 123.875 C10.16305179 125.71048272 8.36592056 125.87707001 4.75 125.8125 C0.3735798 124.64024459 -0.97456504 123.45385035 -3.75 119.875 C-4.49551437 118.23650688 -5.22329348 116.58988023 -5.9375 114.9375 C-8.73911865 109.04444009 -12.76631211 106.26847515 -18.75 103.875 C-25.89432673 101.66581398 -32.95245797 101.60759658 -40.375 101.5 C-54.44086973 101.09281976 -65.68934028 98.36777694 -78.625 92.8125 C-79.41777344 92.47210693 -80.21054687 92.13171387 -81.02734375 91.78100586 C-82.97601183 90.89796194 -84.8693461 89.89490919 -86.75 88.875 C-87.75 85.875 -87.75 85.875 -86.75 82.875 C-86.81960938 81.60076172 -86.81960938 81.60076172 -86.890625 80.30078125 C-87.27930723 69.23721915 -81.39339618 63.44655125 -74.38427734 55.70507812 C-72.14398417 53.19637815 -70.07557002 50.58394629 -68 47.9375 C-64.85569106 43.98069106 -64.85569106 43.98069106 -63.75 42.875 C-61.75735452 42.76089305 -59.76402201 42.653682 -57.76928711 42.58520508 C-44.60477309 42.1286399 -34.21611554 40.13932864 -24.4375 30.625 C-19.98496426 23.36901583 -18.25936389 16.28984693 -17.4375 7.85546875 C-16.61238675 4.27841527 -15.29931905 2.48524028 -12.75 -0.125 C-8.25730856 -1.62256381 -4.42489392 -1.81018388 0 0 Z " fill="#4791DD" transform="translate(376.75,162.125)"/>
<path d="M0 0 C5.13188091 3.7628053 9.16066459 8.01296297 12.453125 13.45703125 C12.86691406 14.13765625 13.28070313 14.81828125 13.70703125 15.51953125 C18.13332527 24.40296454 17.80625964 36.03564675 15.79296875 45.58984375 C11.92675237 56.26796519 4.34781722 63.41004339 -5.55859375 68.48828125 C-14.60690005 72.21101299 -26.00446379 71.86709221 -35.046875 68.39453125 C-45.11571713 63.5238312 -52.17948462 55.75385659 -56.421875 45.39453125 C-59.12356241 36.17320295 -58.83259991 25.15645815 -54.671875 16.48828125 C-48.91429576 6.09265207 -41.84669441 -0.60745616 -30.546875 -4.54296875 C-19.89093214 -7.12422199 -9.42148142 -5.70779933 0 0 Z " fill="#FCFDFE" transform="translate(380.546875,57.54296875)"/>
<path d="M0 0 C5.13188091 3.7628053 9.16066459 8.01296297 12.453125 13.45703125 C12.86691406 14.13765625 13.28070313 14.81828125 13.70703125 15.51953125 C18.13332527 24.40296454 17.80625964 36.03564675 15.79296875 45.58984375 C11.92675237 56.26796519 4.34781722 63.41004339 -5.55859375 68.48828125 C-14.60690005 72.21101299 -26.00446379 71.86709221 -35.046875 68.39453125 C-45.11571713 63.5238312 -52.17948462 55.75385659 -56.421875 45.39453125 C-59.12356241 36.17320295 -58.83259991 25.15645815 -54.671875 16.48828125 C-48.91429576 6.09265207 -41.84669441 -0.60745616 -30.546875 -4.54296875 C-19.89093214 -7.12422199 -9.42148142 -5.70779933 0 0 Z M-42.546875 14.45703125 C-48.40720638 22.23687564 -49.18043255 28.80746246 -48.546875 38.45703125 C-47.34355105 46.06203864 -43.23001502 51.41096921 -37.546875 56.45703125 C-30.14553392 61.23761276 -23.18196136 62.21431044 -14.546875 61.45703125 C-7.16169931 59.56181183 -1.20137386 56.31033605 3.1484375 49.99609375 C8.13858195 41.33877337 9.27710571 32.47935697 6.75 22.75 C5.83200289 20.46667668 4.79373595 18.51822058 3.453125 16.45703125 C3.040625 15.8228125 2.628125 15.18859375 2.203125 14.53515625 C-2.30821535 8.53712419 -9.22318024 4.90422842 -16.546875 3.45703125 C-27.2294889 2.21106672 -35.38710533 6.73571101 -42.546875 14.45703125 Z " fill="#3561A4" transform="translate(380.546875,57.54296875)"/>
<path d="M0 0 C0 1.32 0 2.64 0 4 C1.32 4 2.64 4 4 4 C3.53292113 8.34586428 0.93340749 10.33326261 -2.125 13.25 C-5.33556914 16.35783092 -8.49306486 19.45452142 -11.375 22.875 C-15.08371197 27.22870535 -19.16006441 31.1895163 -23.22631836 35.20458984 C-26.83170097 38.7812214 -30.21566976 42.46824031 -33.5 46.34375 C-35.78322191 48.86480753 -38.32189597 50.90977246 -41 53 C-42.23739886 47.82125662 -42.81664794 43.06135603 -41 38 C-36.68042584 31.86689338 -30.82234168 27.0304656 -25.2409668 22.08056641 C-22.47965726 19.51690153 -20.05125159 16.75950386 -17.61499023 13.89038086 C-15.12851373 10.97990655 -12.49212102 8.23188931 -9.8125 5.5 C-9.30525391 4.96375 -8.79800781 4.4275 -8.27539062 3.875 C-4.46464445 0 -4.46464445 0 0 0 Z " fill="#53AAFB" transform="translate(104,257)"/>
<path d="M0 0 C2.4375 0.1875 2.4375 0.1875 3.4375 1.1875 C3.47543984 3.23203562 3.51006238 5.27670304 3.52539062 7.3215332 C3.44614935 14.87477189 3.44614935 14.87477189 6.0234375 21.76171875 C7.88838016 23.50649703 7.88838016 23.50649703 9.8359375 24.94140625 C11.4375 26.1875 11.4375 26.1875 12.5625 28.9375 C12.4375 31.1875 12.4375 31.1875 11.25 33.0625 C9.4375 34.1875 9.4375 34.1875 7.546875 33.97265625 C4.96813815 33.01279309 3.74099509 31.7579276 1.875 29.75 C-0.24136307 27.49223183 -1.95268785 25.92737477 -4.5625 24.1875 C-4.93481445 21.97265625 -4.93481445 21.97265625 -4.92578125 19.25 C-4.92513672 18.27289063 -4.92449219 17.29578125 -4.92382812 16.2890625 C-4.90771484 15.26554687 -4.89160156 14.24203125 -4.875 13.1875 C-4.87822266 12.16398437 -4.88144531 11.14046875 -4.88476562 10.0859375 C-4.81413863 0.35225405 -4.81413863 0.35225405 0 0 Z " fill="#315DA0" transform="translate(360.5625,70.8125)"/>
<path d="M0 0 C-0.12049033 6.98843931 -0.12049033 6.98843931 -2.37890625 9.5859375 C-3.58143884 10.55980059 -4.802949 11.5105371 -6.0390625 12.44140625 C-8.13883021 14.11034513 -9.7662576 15.89388056 -11.5 17.9375 C-13.86335969 20.70631191 -16.26970622 23.39403122 -18.8125 26 C-19.37582031 26.5775 -19.93914062 27.155 -20.51953125 27.75 C-22 29 -22 29 -24 29 C-23.3898931 20.45850338 -20.53454343 12.87052516 -14 7 C-4.3306288 0 -4.3306288 0 0 0 Z " fill="#4F96E6" transform="translate(92,246)"/>
<path d="M0 0 C5.41935484 0.36129032 5.41935484 0.36129032 7.875 3.0625 C9.75252707 7.9649318 9.78283858 12.06350456 7.8125 16.9375 C6 19 6 19 3.625 20.125 C1 20 1 20 -1.8125 18.1875 C-4.82186476 13.80242564 -4.95924214 10.17820978 -4 5 C-2 1.875 -2 1.875 0 0 Z " fill="#FBFDFE" transform="translate(195,140)"/>
<path d="M0 0 C3.47937357 3.71244166 3.49402867 6.68632894 3.37109375 11.58203125 C2.85946981 14.91566516 1.42742334 16.72429062 -1 19 C-6.41935484 18.63870968 -6.41935484 18.63870968 -8.875 15.9375 C-10.32287739 12.15693127 -10.61407329 8.99955628 -10 5 C-7.54377653 -0.24738651 -5.66814629 -1.79721711 0 0 Z " fill="#FAFCFE" transform="translate(257,141)"/>
<path d="M0 0 C0 1.32 0 2.64 0 4 C1.32 4 2.64 4 4 4 C3.57406501 8.39440251 0.60122716 10.70138586 -2.4375 13.5625 C-5.24611041 16.24884055 -7.82838853 18.74258279 -10 22 C-10.99 21.67 -11.98 21.34 -13 21 C-12.01 17.535 -12.01 17.535 -11 14 C-11.99 13.67 -12.98 13.34 -14 13 C-14.33 13.99 -14.66 14.98 -15 16 C-15.33 16.66 -15.66 17.32 -16 18 C-17.32 18 -18.64 18 -20 18 C-17.90877269 13.36607362 -14.6772989 10.30953372 -11.125 6.75 C-10.49980469 6.1003125 -9.87460938 5.450625 -9.23046875 4.78125 C-8.62074219 4.16765625 -8.01101562 3.5540625 -7.3828125 2.921875 C-6.55354248 2.08027832 -6.55354248 2.08027832 -5.70751953 1.22167969 C-4 0 -4 0 0 0 Z " fill="#52A0EF" transform="translate(104,257)"/>
<path d="M0 0 C2.475 0.495 2.475 0.495 5 1 C3.06055206 3.41120555 1.07297414 5.70520956 -1 8 C-1.76570313 8.88816406 -2.53140625 9.77632812 -3.3203125 10.69140625 C-7.94932224 15.54841199 -11.35206783 18.52145801 -18.12524414 18.68774414 C-21.10313727 18.59714173 -24.04313915 18.3591329 -27 18 C-26.505 16.515 -26.505 16.515 -26 15 C-23.50772556 13.98190442 -21.1302254 13.14318378 -18.5625 12.375 C-13.68225624 10.94260719 -13.68225624 10.94260719 -9 9 C-8.34786708 6.97536745 -8.34786708 6.97536745 -8 5 C-8.66 4.67 -9.32 4.34 -10 4 C-9.01 4 -8.02 4 -7 4 C-6.34 4.66 -5.68 5.32 -5 6 C-3.35 4.02 -1.7 2.04 0 0 Z " fill="#4487D1" transform="translate(160,224)"/>
<path d="M0 0 C2.26436901 0.24727899 4.41757939 0.60789093 6.62890625 1.1484375 C6.62890625 1.4784375 6.62890625 1.8084375 6.62890625 2.1484375 C6.025625 2.17421875 5.42234375 2.2 4.80078125 2.2265625 C-0.2929215 2.55325285 -0.2929215 2.55325285 -4.74609375 4.8359375 C-6.46563031 7.13152806 -6.46563031 7.13152806 -7.62109375 9.8984375 C-10.03508335 14.38156104 -13.30001765 18.06973504 -17.37109375 21.1484375 C-18.69109375 21.1484375 -20.01109375 21.1484375 -21.37109375 21.1484375 C-21.37109375 21.8084375 -21.37109375 22.4684375 -21.37109375 23.1484375 C-22.03109375 23.1484375 -22.69109375 23.1484375 -23.37109375 23.1484375 C-23.37109375 23.8084375 -23.37109375 24.4684375 -23.37109375 25.1484375 C-24.03109375 25.1484375 -24.69109375 25.1484375 -25.37109375 25.1484375 C-25.37109375 26.1384375 -25.37109375 27.1284375 -25.37109375 28.1484375 C-27.02109375 28.4784375 -28.67109375 28.8084375 -30.37109375 29.1484375 C-28.75416901 25.0671636 -25.82834257 22.34238555 -22.74609375 19.3359375 C-22.20774902 18.80403809 -21.6694043 18.27213867 -21.11474609 17.72412109 C-17.55873019 14.23610191 -13.92109443 10.87826353 -10.09375 7.6875 C-8.34501103 6.12513457 -6.93737249 4.44313801 -5.43359375 2.6484375 C-2.37109375 0.1484375 -2.37109375 0.1484375 0 0 Z " fill="#4A9EEC" transform="translate(202.37109375,230.8515625)"/>
<path d="M0 0 C1.12894876 0.93274109 2.25300876 1.87140122 3.375 2.8125 C4.00148438 3.33457031 4.62796875 3.85664062 5.2734375 4.39453125 C7 6 7 6 9 9 C8.625 11.6875 8.625 11.6875 8 14 C5.765625 14.734375 5.765625 14.734375 3 15 C0.796875 13.453125 0.796875 13.453125 -1.25 11.25 C-2.27867187 10.17492187 -2.27867187 10.17492187 -3.328125 9.078125 C-5 7 -5 7 -6 4 C-4.02 2.68 -2.04 1.36 0 0 Z " fill="#3467AF" transform="translate(364,90)"/>
<path d="M0 0 C0.99 0.99 1.98 1.98 3 3 C-0.13529923 7.03109901 -2.58500284 9.39628373 -7 12 C-7.99 13.3303125 -7.99 13.3303125 -9 14.6875 C-11 17 -11 17 -13.75 17.3125 C-14.4925 17.209375 -15.235 17.10625 -16 17 C-16.2475 17.5775 -16.495 18.155 -16.75 18.75 C-18.16305697 21.29350255 -19.95298918 22.95298918 -22 25 C-22 25.66 -22 26.32 -22 27 C-23.65 27.33 -25.3 27.66 -27 28 C-27 25 -27 25 -25.77734375 23.66796875 C-25.17019531 23.17941406 -24.56304687 22.69085938 -23.9375 22.1875 C-19.57096614 18.53434959 -15.40392052 14.70306246 -11.25 10.8125 C-10.60023193 10.20623779 -9.95046387 9.59997559 -9.28100586 8.9753418 C-6.13521399 6.03268772 -3.01973967 3.07311891 0 0 Z " fill="#4A91DE" transform="translate(178,225)"/>
<path d="M0 0 C0.66 0.66 1.32 1.32 2 2 C1.01 2 0.02 2 -1 2 C-3.33564933 2.31669821 -5.6693782 2.64820803 -8 3 C-8.33 3.99 -8.66 4.98 -9 6 C-9.99 6.33 -10.98 6.66 -12 7 C-12.03738281 7.78503906 -12.07476562 8.57007813 -12.11328125 9.37890625 C-12.50151345 15.58300901 -13.11154958 20.47426876 -16 26 C-17.33431049 21.99706853 -16.5209259 18.67705927 -15.8125 14.625 C-15.69841797 13.86960938 -15.58433594 13.11421875 -15.46679688 12.3359375 C-14.64704495 7.57555069 -13.57110768 4.48367944 -10 1 C-6.47940432 -0.17353189 -3.693507 -0.20146402 0 0 Z " fill="#3972BB" transform="translate(374,161)"/>
<path d="M0 0 C0.66 0.99 1.32 1.98 2 3 C1.67 4.32 1.34 5.64 1 7 C-3.95 7 -8.9 7 -14 7 C-13.67 6.01 -13.34 5.02 -13 4 C-10.05859375 2.83203125 -10.05859375 2.83203125 -6.4375 1.8125 C-5.23996094 1.46832031 -4.04242188 1.12414062 -2.80859375 0.76953125 C-1.88175781 0.51558594 -0.95492187 0.26164063 0 0 Z " fill="#599BDF" transform="translate(147,235)"/>
<path d="M0 0 C3.93008778 1.31002926 6.47778544 2.66707362 9 6 C9.75 9.75 9.75 9.75 10 13 C9.360625 13.103125 8.72125 13.20625 8.0625 13.3125 C7.0415625 13.6528125 7.0415625 13.6528125 6 14 C5.67 14.99 5.34 15.98 5 17 C3.68 15.02 2.36 13.04 1 11 C2.32 9.68 3.64 8.36 5 7 C4.04611655 4.82870996 4.04611655 4.82870996 1.9375 2.9375 C1.298125 2.298125 0.65875 1.65875 0 1 C0 0.67 0 0.34 0 0 Z " fill="#355CA0" transform="translate(380,59)"/>
<path d="M0 0 C0.66 0.33 1.32 0.66 2 1 C-1.37200691 3.74508144 -4.81936461 6.31132955 -8.375 8.8125 C-13.03886082 12.17628595 -17.1202233 15.76270122 -21 20 C-21 15.91645969 -19.53738553 15.1043177 -16.6875 12.25 C-11.68230068 7.38760237 -6.32189333 3.04021606 0 0 Z " fill="#275396" transform="translate(189,48)"/>
<path d="M0 0 C0.66 0.66 1.32 1.32 2 2 C-4.70325254 9.05097169 -9.14835956 12.3775652 -19 13 C-16.59843034 10.59843034 -14.26348166 9.62498095 -11.1875 8.1875 C-6.57749193 5.93507109 -3.25267501 3.9496768 0 0 Z " fill="#397CC9" transform="translate(353,192)"/>
<path d="M0 0 C-0.17298401 2.33528415 -0.70225369 3.69177582 -2.33203125 5.37890625 C-6.57211538 9 -6.57211538 9 -9 9 C-9.99 9.495 -9.99 9.495 -11 10 C-10.41861767 6.77788109 -9.49498087 5.06332259 -7.1875 2.75 C-6.68605469 2.22921875 -6.18460937 1.7084375 -5.66796875 1.171875 C-4 0 -4 0 0 0 Z " fill="#57A6F6" transform="translate(108,261)"/>
<path d="M0 0 C-1.40844718 3.21524305 -3.10344786 5.32183868 -5.625 7.75 C-6.57246094 8.67039063 -6.57246094 8.67039063 -7.5390625 9.609375 C-8.02117187 10.06828125 -8.50328125 10.5271875 -9 11 C-10.0859375 7.2578125 -10.0859375 7.2578125 -9.3125 4.9375 C-6.62868731 0.97568126 -4.82130544 0 0 0 Z " fill="#4B92DF" transform="translate(180,236)"/>
<path d="M0 0 C-0.375 1.9375 -0.375 1.9375 -1 4 C-1.99 4.495 -1.99 4.495 -3 5 C-3.7115625 5.99 -3.7115625 5.99 -4.4375 7 C-6 9 -6 9 -9 10 C-9 10.66 -9 11.32 -9 12 C-9.99 12.33 -10.98 12.66 -12 13 C-10.48665656 7.61922331 -5.99032955 0 0 0 Z " fill="#3D86D0" transform="translate(316,205)"/>
<path d="M0 0 C0 3 0 3 -2.625 5.91796875 C-3.74249406 7.01550756 -4.86785643 8.10507895 -6 9.1875 C-6.57234375 9.74630859 -7.1446875 10.30511719 -7.734375 10.88085938 C-9.14962788 12.26073093 -10.57397155 13.63126734 -12 15 C-12.33 14.34 -12.66 13.68 -13 13 C-8.96476648 8.18876004 -4.95532767 3.86757281 0 0 Z " fill="#43A4F9" transform="translate(129,289)"/>
<path d="M0 0 C1.65 0.33 3.3 0.66 5 1 C4.06725891 2.12894876 3.12859878 3.25300876 2.1875 4.375 C1.66542969 5.00148437 1.14335937 5.62796875 0.60546875 6.2734375 C-1 8 -1 8 -4 10 C-4.8125 8.375 -4.8125 8.375 -5 6 C-3.53181864 3.75390165 -1.84147142 1.97621323 0 0 Z " fill="#5092DB" transform="translate(160,224)"/>
<path d="M0 0 C0.66 0.33 1.32 0.66 2 1 C0.38405168 3.04119788 -1.2856382 5.04072937 -3 7 C-3.66 7 -4.32 7 -5 7 C-5.2475 7.598125 -5.495 8.19625 -5.75 8.8125 C-7.16370012 11.28647521 -8.65055383 12.43370255 -11 14 C-9.49665796 8.65478385 -5.82879909 4.86491984 -2 1 C-1.34 0.67 -0.68 0.34 0 0 Z " fill="#3A75BE" transform="translate(316,171)"/>
<path d="M0 0 C0.99 0.33 1.98 0.66 3 1 C2.07038578 2.15224028 1.1309875 3.29659176 0.1875 4.4375 C-0.59560547 5.39462891 -0.59560547 5.39462891 -1.39453125 6.37109375 C-3 8 -3 8 -6 9 C-6.375 6.75 -6.375 6.75 -6 4 C-3.1875 1.625 -3.1875 1.625 0 0 Z " fill="#56A3F0" transform="translate(74,266)"/>
<path d="M0 0 C0.66 0 1.32 0 2 0 C1.04555011 3.81779957 0.06001529 4.9564595 -3.1875 7.3125 C-6.82113225 9.21328662 -9.90470521 9.33430978 -14 9 C-14 8.67 -14 8.34 -14 8 C-12.80375 7.79375 -11.6075 7.5875 -10.375 7.375 C-5.46702105 6.19151571 -3.34702003 3.66578384 0 0 Z " fill="#509DE8" transform="translate(155,270)"/>
<path d="M0 0 C2.28515625 0.52734375 2.28515625 0.52734375 3.9375 1.0625 C3.9375 1.3925 3.9375 1.7225 3.9375 2.0625 C3.33421875 2.08828125 2.7309375 2.1140625 2.109375 2.140625 C-3.08610508 2.4734673 -3.08610508 2.4734673 -7.5625 4.9375 C-9.2293497 7.08181277 -9.2293497 7.08181277 -10.0625 10.0625 C-11.3825 9.7325 -12.7025 9.4025 -14.0625 9.0625 C-5.96530754 -0.75749937 -5.96530754 -0.75749937 0 0 Z " fill="#4290DE" transform="translate(205.0625,230.9375)"/>
<path d="M0 0 C0.99 0.33 1.98 0.66 3 1 C-0.49359465 4.59634744 -4.11098131 7.83451967 -8 11 C-7.43040847 7.37386801 -6.07625466 5.74482259 -3.4375 3.25 C-2.79683594 2.63640625 -2.15617188 2.0228125 -1.49609375 1.390625 C-1.00238281 0.93171875 -0.50867188 0.4728125 0 0 Z " fill="#4784CE" transform="translate(174,213)"/>
<path d="M0 0 C0 0.99 0 1.98 0 3 C-0.804375 3.474375 -1.60875 3.94875 -2.4375 4.4375 C-5.1578895 5.73355856 -5.1578895 5.73355856 -5.8125 8.1875 C-5.874375 8.785625 -5.93625 9.38375 -6 10 C-7.65 10 -9.3 10 -11 10 C-10.34 9.67 -9.68 9.34 -9 9 C-8.31513275 7.67592331 -7.65129797 6.34090759 -7 5 C-4.61914672 1.21227888 -4.61914672 1.21227888 -1.8125 0.25 C-1.214375 0.1675 -0.61625 0.085 0 0 Z " fill="#4E93E0" transform="translate(282,216)"/>
<path d="M0 0 C-4 2 -4 2 -5.9375 2.9375 C-9.73837016 4.89552402 -13.11062616 6.80648155 -16 10 C-15.7416116 6.51175659 -14.73533264 5.75785753 -12.0625 3.3125 C-7.63683349 -0.02932982 -5.52468353 -0.10230895 0 0 Z " fill="#2F62A9" transform="translate(342,135)"/>
<path d="M0 0 C0.66 0 1.32 0 2 0 C4 2 4 2 5 4 C5.66 4 6.32 4 7 4 C9.29648649 6.5614657 10 7.47967572 10 11 C6.57802415 9.57913611 4.90089977 7.93029236 2.75 4.9375 C1.96882813 3.86822266 1.96882813 3.86822266 1.171875 2.77734375 C0 1 0 1 0 0 Z " fill="#3A71B8" transform="translate(327,108)"/>
<path d="M0 0 C2.62187494 1.04874998 3.79371361 1.64931313 5.25 4.125 C5.4975 4.74375 5.745 5.3625 6 6 C5.13375 5.814375 4.2675 5.62875 3.375 5.4375 C-0.05152628 4.99332067 -2.64212371 5.28045508 -6 6 C-4 4 -2 2 0 0 Z " fill="#4193E3" transform="translate(285,254)"/>
<path d="M0 0 C0.556875 0.268125 1.11375 0.53625 1.6875 0.8125 C1.0275 0.8125 0.3675 0.8125 -0.3125 0.8125 C-0.3125 1.4725 -0.3125 2.1325 -0.3125 2.8125 C-0.9725 2.8125 -1.6325 2.8125 -2.3125 2.8125 C-2.3125 3.4725 -2.3125 4.1325 -2.3125 4.8125 C-2.9725 4.8125 -3.6325 4.8125 -4.3125 4.8125 C-4.3125 5.8025 -4.3125 6.7925 -4.3125 7.8125 C-5.9625 8.1425 -7.6125 8.4725 -9.3125 8.8125 C-7.66495848 4.76853446 -4.80734346 -0.3897846 0 0 Z " fill="#4295E3" transform="translate(181.3125,251.1875)"/>
<path d="M0 0 C3.93673644 1.31224548 6.22719294 2.91910327 9 6 C8.67 6.66 8.34 7.32 8 8 C7.01 8.33 6.02 8.66 5 9 C4.9175 8.4225 4.835 7.845 4.75 7.25 C3.79603637 4.38810912 2.1766193 3.03619225 0 1 C0 0.67 0 0.34 0 0 Z M3 10 C3 10.99 3 11.98 3 13 C2.34 12.34 1.68 11.68 1 11 C1.66 10.67 2.32 10.34 3 10 Z " fill="#2E5797" transform="translate(380,59)"/>
<path d="M0 0 C0.9796875 -0.01417969 1.959375 -0.02835938 2.96875 -0.04296875 C5.5 0.1875 5.5 0.1875 7.5 2.1875 C4.21480525 3.28256492 1.76336585 3.28710608 -1.6875 3.25 C-3.31751953 3.23646484 -3.31751953 3.23646484 -4.98046875 3.22265625 C-5.81191406 3.21105469 -6.64335937 3.19945312 -7.5 3.1875 C-7.5 2.5275 -7.5 1.8675 -7.5 1.1875 C-4.89820337 -0.11339831 -2.9030812 0.01909922 0 0 Z " fill="#395D9A" transform="translate(360.5,51.8125)"/>
<path d="M0 0 C-1.49835228 4.66154042 -4.88463591 5.86610751 -9 8 C-7.38794515 3.02949753 -5.53380518 0 0 0 Z " fill="#427FC4" transform="translate(201,195)"/>
<path d="M0 0 C0.99 0.33 1.98 0.66 3 1 C1.04417252 2.81527107 -0.91449877 4.62728891 -2.875 6.4375 C-3.43058594 6.95376953 -3.98617187 7.47003906 -4.55859375 8.00195312 C-8.7734375 11.88671875 -8.7734375 11.88671875 -11 13 C-9.46356148 9.31930113 -7.21849055 7.01224796 -4.375 4.25 C-3.55773437 3.45078125 -2.74046875 2.6515625 -1.8984375 1.828125 C-0.95871094 0.92320312 -0.95871094 0.92320312 0 0 Z " fill="#489BE9" transform="translate(100,257)"/>
<path d="M0 0 C2 3 2 3 1.625 5.1875 C1.41875 5.785625 1.2125 6.38375 1 7 C-1.64 6.67 -4.28 6.34 -7 6 C-7 5.34 -7 4.68 -7 4 C-6.401875 3.896875 -5.80375 3.79375 -5.1875 3.6875 C-2.71756736 2.91123545 -1.67748765 1.92911079 0 0 Z " fill="#4F91DC" transform="translate(147,235)"/>
<path d="M0 0 C0.33 0.99 0.66 1.98 1 3 C-0.43359375 5.04296875 -0.43359375 5.04296875 -2.4375 7.1875 C-3.09621094 7.90292969 -3.75492188 8.61835938 -4.43359375 9.35546875 C-4.95050781 9.89816406 -5.46742188 10.44085938 -6 11 C-6.33 10.01 -6.66 9.02 -7 8 C-4.6875 4.8125 -4.6875 4.8125 -2 2 C-1.34 2 -0.68 2 0 2 C0 1.34 0 0.68 0 0 Z " fill="#419EF0" transform="translate(166,275)"/>
<path d="M0 0 C0.66 0.33 1.32 0.66 2 1 C0.33784732 2.33895632 -1.32963607 3.67130142 -3 5 C-3.70125 5.598125 -4.4025 6.19625 -5.125 6.8125 C-5.74375 7.204375 -6.3625 7.59625 -7 8 C-7.99 7.67 -8.98 7.34 -10 7 C-8.70982586 6.01886757 -7.41780894 5.04015801 -6.125 4.0625 C-5.04605469 3.24458984 -5.04605469 3.24458984 -3.9453125 2.41015625 C-2 1 -2 1 0 0 Z " fill="#224989" transform="translate(189,48)"/>
<path d="M0 0 C0.99 0.99 1.98 1.98 3 3 C2.67257813 3.56203125 2.34515625 4.1240625 2.0078125 4.703125 C0.88214506 7.26859964 0.7931889 8.96842277 0.875 11.75 C0.89304688 12.54921875 0.91109375 13.3484375 0.9296875 14.171875 C0.95289063 14.77515625 0.97609375 15.3784375 1 16 C0.67 16 0.34 16 0 16 C-0.19389096 13.5211787 -0.38040123 11.04219069 -0.5625 8.5625 C-0.61857422 7.85544922 -0.67464844 7.14839844 -0.73242188 6.41992188 C-0.86190993 4.61572163 -0.93521608 2.80768048 -1 1 C-0.67 0.67 -0.34 0.34 0 0 Z " fill="#56A3F0" transform="translate(157,254)"/>
<path d="M0 0 C0.66 0.66 1.32 1.32 2 2 C1.07213211 3.00894372 0.13231567 4.00690907 -0.8125 5 C-1.59560547 5.8353125 -1.59560547 5.8353125 -2.39453125 6.6875 C-4 8 -4 8 -7 8 C-5.50902342 4.2047869 -3.24299151 2.38957269 0 0 Z " fill="#4082C9" transform="translate(193,222)"/>
<path d="M0 0 C0.66 0 1.32 0 2 0 C2.33 0.99 2.66 1.98 3 3 C2.00390625 4.82421875 2.00390625 4.82421875 0.5625 6.6875 C0.08941406 7.31011719 -0.38367188 7.93273437 -0.87109375 8.57421875 C-1.24363281 9.04472656 -1.61617188 9.51523438 -2 10 C-2.66 9.01 -3.32 8.02 -4 7 C-2.68 4.69 -1.36 2.38 0 0 Z " fill="#3F72B9" transform="translate(386,101)"/>
<path d="M0 0 C0.66 1.32 1.32 2.64 2 4 C0.02 6.97 -1.96 9.94 -4 13 C-4.33 12.34 -4.66 11.68 -5 11 C-4.00390625 8.3984375 -4.00390625 8.3984375 -2.5625 5.375 C-2.08941406 4.37210937 -1.61632812 3.36921875 -1.12890625 2.3359375 C-0.75636719 1.56507813 -0.38382813 0.79421875 0 0 Z " fill="#45AAFE" transform="translate(190,304)"/>
<path d="M0 0 C0.66 0.66 1.32 1.32 2 2 C-0.31 4.31 -2.62 6.62 -5 9 C-5.66 8.34 -6.32 7.68 -7 7 C-4.69 4.69 -2.38 2.38 0 0 Z " fill="#4199EA" transform="translate(193,268)"/>
<path d="M0 0 C0.99 0.33 1.98 0.66 3 1 C1.35 2.98 -0.3 4.96 -2 7 C-2.99 6.34 -3.98 5.68 -5 5 C-3.35 3.35 -1.7 1.7 0 0 Z " fill="#4C92DC" transform="translate(278,244)"/>
<path d="M0 0 C0 0.99 0 1.98 0 3 C-3.15830185 6.06806466 -5.61999924 7.49942848 -10 8 C-10 7.34 -10 6.68 -10 6 C-9.44570312 5.73445312 -8.89140625 5.46890625 -8.3203125 5.1953125 C-7.59585938 4.84210938 -6.87140625 4.48890625 -6.125 4.125 C-5.40570313 3.77695313 -4.68640625 3.42890625 -3.9453125 3.0703125 C-1.84864981 2.03442457 -1.84864981 2.03442457 0 0 Z " fill="#387CC6" transform="translate(164,196)"/>
<path d="M0 0 C0.66 0.66 1.32 1.32 2 2 C-3.36439644 4.68219822 -7.01006953 5.3152595 -13 5 C-13 4.67 -13 4.34 -13 4 C-11.96875 3.896875 -10.9375 3.79375 -9.875 3.6875 C-6.04916055 3.00872203 -3.36629975 1.88841205 0 0 Z " fill="#3E73B9" transform="translate(373,123)"/>
<path d="M0 0 C0.99 0.33 1.98 0.66 3 1 C2.38125 1.2475 1.7625 1.495 1.125 1.75 C-1.13746494 2.82143729 -1.13746494 2.82143729 -2 5 C-3.24508396 7.49016793 -4.46716796 7.98686718 -7 9 C-5.44499019 5.18315774 -2.96404505 2.80804268 0 0 Z " fill="#1F4990" transform="translate(338,59)"/>
<path d="M0 0 C3.77545388 1.09068668 6.47043472 1.9083091 9 5 C8.01 5.495 8.01 5.495 7 6 C5.0546875 5.22265625 5.0546875 5.22265625 2.875 4.0625 C2.15054688 3.68222656 1.42609375 3.30195313 0.6796875 2.91015625 C0.12539062 2.60980469 -0.42890625 2.30945313 -1 2 C-0.67 1.34 -0.34 0.68 0 0 Z " fill="#4893DD" transform="translate(216,230)"/>
<path d="M0 0 C0.66 0.66 1.32 1.32 2 2 C0.875 4 0.875 4 -1 6 C-4.1875 6.25 -4.1875 6.25 -7 6 C-2.25 1.125 -2.25 1.125 0 0 Z " fill="#5995DC" transform="translate(269,210)"/>
<path d="M0 0 C0.66 0.66 1.32 1.32 2 2 C0.35 3.98 -1.3 5.96 -3 8 C-3.66 7.67 -4.32 7.34 -5 7 C-4.60196439 4.11424181 -4.20990931 3.17810487 -1.9375 1.25 C-1.298125 0.8375 -0.65875 0.425 0 0 Z " fill="#4080CB" transform="translate(304,197)"/>
<path d="M0 0 C2.78637633 4.1795645 1.79562512 6.14668677 1 11 C0.34 11 -0.32 11 -1 11 C-0.67 7.37 -0.34 3.74 0 0 Z " fill="#2F5896" transform="translate(389,87)"/>
<path d="M0 0 C1.32 0.33 2.64 0.66 4 1 C4 1.66 4 2.32 4 3 C1.36 3.66 -1.28 4.32 -4 5 C-2.68 3.35 -1.36 1.7 0 0 Z " fill="#488DE1" transform="translate(165,246)"/>
<path d="M0 0 C0.66 0.66 1.32 1.32 2 2 C1.01 2 0.02 2 -1 2 C-3.33564933 2.31669821 -5.6693782 2.64820803 -8 3 C-8.33 2.34 -8.66 1.68 -9 1 C-5.98675805 -0.50662097 -3.31713623 -0.17770373 0 0 Z " fill="#366DB6" transform="translate(374,161)"/>
<path d="M0 0 C1.65 1.65 3.3 3.3 5 5 C4.01 5.33 3.02 5.66 2 6 C0.68 4.35 -0.64 2.7 -2 1 C-1.34 0.67 -0.68 0.34 0 0 Z " fill="#4781C6" transform="translate(221,187)"/>
<path d="M0 0 C0.66 0.33 1.32 0.66 2 1 C1.67 2.32 1.34 3.64 1 5 C-0.65 5.33 -2.3 5.66 -4 6 C-1.125 1.125 -1.125 1.125 0 0 Z " fill="#437DC6" transform="translate(364,162)"/>
<path d="M0 0 C2.31 1.65 4.62 3.3 7 5 C6.67 5.66 6.34 6.32 6 7 C5.34 7 4.68 7 4 7 C4 6.34 4 5.68 4 5 C2.68 4.67 1.36 4.34 0 4 C0 2.68 0 1.36 0 0 Z " fill="#3E77BE" transform="translate(338,109)"/>
<path d="M0 0 C2.62187494 1.04874998 3.79371361 1.64931313 5.25 4.125 C5.4975 4.74375 5.745 5.3625 6 6 C5.01 6 4.02 6 3 6 C0.8125 3.5 0.8125 3.5 -1 1 C-0.67 0.67 -0.34 0.34 0 0 Z " fill="#54A8F6" transform="translate(366,268)"/>
<path d="M0 0 C-6 4 -6 4 -10 4 C-10 3.34 -10 2.68 -10 2 C-6.49223216 0.39644899 -3.85645121 -0.22036864 0 0 Z " fill="#264A8A" transform="translate(208,42)"/>
</svg>
